<svg width="50" height="50" viewBox="0 0 50 50" fill="none" xmlns="http://www.w3.org/2000/svg">
<path d="M25 0C11.1917 0 0 11.1937 0 25C0 38.8062 11.1917 50 25 50C38.8083 50 50 38.8062 50 25C50 11.1937 38.8083 0 25 0ZM45.5938 23.8354C40.2292 22.9562 35.2958 22.9083 30.7958 23.6833C30.2875 22.5104 29.7604 21.3396 29.1979 20.1833C34.0104 18.1 37.875 15.2708 40.7562 11.6792C43.5687 15 45.3333 19.2188 45.5938 23.8354ZM37.5896 8.66458C35.0792 11.9021 31.6146 14.4625 27.2021 16.3312C25.0854 12.4542 22.6646 8.67292 19.9354 5.00208C21.5583 4.59167 23.25 4.34792 25 4.34792C29.7396 4.34792 34.1 5.97083 37.5896 8.66458ZM15.6812 6.59583C18.4542 10.225 20.9125 13.9667 23.05 17.8062C17.9875 19.2958 11.9437 20.0604 4.95833 20.1083C6.4 14.2021 10.3771 9.28958 15.6812 6.59583ZM4.34792 25L4.375 24.4667C12.3937 24.4562 19.3104 23.5333 25.1042 21.7125C25.5896 22.7021 26.0542 23.6958 26.5 24.6958C19.4583 26.8979 13.6562 31.4083 9.13125 38.1958C6.14792 34.6146 4.34792 30.0146 4.34792 25ZM12.325 41.2708C16.4271 34.8375 21.6625 30.65 28.1542 28.7146C30.0875 33.7562 31.5062 38.9437 32.4104 44.2562C25.4333 46.9458 17.925 45.6437 12.325 41.2708ZM36.4625 42.1667C35.55 37.2646 34.2125 32.4729 32.4625 27.7979C36.3708 27.2458 40.6708 27.3896 45.3771 28.2062C44.4667 34.0104 41.1521 39.0229 36.4625 42.1667Z" fill="black"/>
</svg>
