<svg width="358" height="321" viewBox="0 0 358 321" fill="none" xmlns="http://www.w3.org/2000/svg">
<path d="M247.465 294.806C219.834 309.667 188.293 315.644 157.141 311.924C125.989 308.203 96.7432 294.965 73.3903 274.014C50.0375 253.064 33.7145 225.421 26.647 194.854C19.5795 164.287 22.1115 132.284 33.8978 103.209L35.3218 103.786C23.6543 132.568 21.1478 164.249 28.144 194.508C35.1403 224.766 51.2988 252.131 74.4164 272.871C97.534 293.61 126.486 306.715 157.323 310.398C188.161 314.081 219.385 308.164 246.737 293.452L247.465 294.806Z" fill="#0AF0FF"/>
<path d="M102.99 26.1944C130.62 11.3332 162.161 5.35551 193.313 9.07626C224.465 12.797 253.711 26.0351 277.064 46.9856C300.417 67.9362 316.74 95.5794 323.807 126.146C330.875 156.713 328.343 188.716 316.557 217.791L315.133 217.214C326.8 188.432 329.307 156.751 322.31 126.492C315.314 96.2335 299.156 68.8688 276.038 48.1294C252.92 27.3899 223.969 14.2852 193.131 10.6019C162.293 6.91867 131.069 12.8362 103.718 27.5476L102.99 26.1944Z" fill="#0AF0FF"/>
<path d="M101.728 0L102.229 18.1292C102.415 24.8823 107.846 30.3129 114.599 30.4994L132.728 31L114.599 31.5006C107.846 31.687 102.415 37.1177 102.229 43.8708L101.728 62L101.227 43.8708C101.041 37.1177 95.6104 31.687 88.8572 31.5006L70.728 31L88.8572 30.4994C95.6104 30.3129 101.041 24.8823 101.227 18.1292L101.728 0Z" fill="#0AF0FF"/>
<path d="M346.592 204.692L329.895 211.771C323.675 214.408 320.599 221.446 322.889 227.801L329.036 244.864L321.957 228.167C319.32 221.947 312.283 218.871 305.927 221.161L288.864 227.308L305.562 220.229C311.781 217.592 314.857 210.555 312.567 204.199L306.42 187.136L313.499 203.834C316.136 210.053 323.174 213.129 329.529 210.839L346.592 204.692Z" fill="#0AF0FF"/>
<path d="M251.48 320.209L250.665 302.091C250.361 295.342 244.837 290.007 238.081 289.938L219.946 289.752L238.064 288.937C244.813 288.633 250.148 283.109 250.217 276.353L250.403 258.218L251.218 276.336C251.522 283.085 257.046 288.42 263.802 288.489L281.937 288.675L263.819 289.49C257.07 289.794 251.735 295.318 251.666 302.074L251.48 320.209Z" fill="#0AF0FF"/>
<path d="M65.0683 99.0796L47.1078 101.597C40.4175 102.535 35.6258 108.537 36.193 115.269L37.7157 133.341L35.1981 115.38C34.2603 108.69 28.2583 103.899 21.5265 104.466L3.45441 105.988L21.4149 103.471C28.1052 102.533 32.8969 96.531 32.3297 89.7992L30.807 71.7271L33.3246 89.6876C34.2624 96.3779 40.2643 101.17 46.9962 100.602L65.0683 99.0796Z" fill="#0AF0FF"/>
</svg>
