<svg width="353" height="361" viewBox="0 0 353 361" fill="none" xmlns="http://www.w3.org/2000/svg">
<path d="M176.5 0L178.428 172.053L254.816 17.8751L181.902 173.726L317.621 67.9601L184.306 176.741L352.474 140.335L185.164 180.5L352.474 220.665L184.306 184.259L317.621 293.04L181.902 187.274L254.816 343.125L178.428 188.947L176.5 361L174.572 188.947L98.184 343.125L171.098 187.274L35.3794 293.04L168.694 184.259L0.525513 220.665L167.836 180.5L0.525513 140.335L168.694 176.741L35.3794 67.9601L171.098 173.726L98.184 17.8751L174.572 172.053L176.5 0Z" fill="#2C292A"/>
</svg>
